<svg id="bfa05c01-806b-4d15-9dd2-464e08403d03" data-name="Layer 1" xmlns="http://www.w3.org/2000/svg" width="100" height="100" viewBox="0 0 100 100"><title>100</title><path d="M68.68.49H31.32a6.45,6.45,0,0,0-6.44,6.43V93.08a6.45,6.45,0,0,0,6.44,6.43H68.68a6.45,6.45,0,0,0,6.44-6.43V6.92A6.45,6.45,0,0,0,68.68.49Zm3.94,6.43V93.08A4,4,0,0,1,68.68,97H31.32a4,4,0,0,1-3.94-3.93V6.92A4,4,0,0,1,31.32,3H68.68A4,4,0,0,1,72.62,6.92Z" fill="#2c3439"/><rect x="42.98" y="7.3" width="11.19" height="1.52" rx="0.76" fill="#f16333"/><path d="M53.4,9.1H43.74a1,1,0,0,1,0-2.06H53.4a1,1,0,1,1,0,2.06ZM43.74,7.57a.5.5,0,1,0,0,1H53.4a.5.5,0,1,0,0-1Z" fill="#f16333"/><circle cx="56.22" cy="8.11" r="0.8" fill="#f16333"/><path d="M56.22,9.18a1.07,1.07,0,1,1,1.07-1.07A1.07,1.07,0,0,1,56.22,9.18Zm0-1.61a.54.54,0,1,0,.54.54A.54.54,0,0,0,56.22,7.57Z" fill="#f16333"/></svg>